# xmcd
#
# Track frame offsets: 
#        150
#        27833
#        52166
#        87999
#        108344
#        134045
#        182531
#        206495
#        234073
#        258841
#        292087
#        314780
#
# Disc length: 4601 seconds
#
# Revision: 2
# Processed by: cddbd v1.5.2PL0 Copyright (c) Steve Scherf et al.
# Submitted via: ExactAudioCopyFreeDBPlugin 1.0
#
DISCID=ae11f70c
DTITLE=Stoney Curtis Band - Halo Of Dark Matter
DYEAR=2013
DGENRE=Blues
TTITLE0=Pure Greed
TTITLE1=Grifter
TTITLE2=Life In Odd Times
TTITLE3=I Can't Live My Life This Way
TTITLE4=You Don't Know What You're Talking About
TTITLE5=Deja Vu
TTITLE6=Drivin' All Night
TTITLE7=Halo Of Dark Matter
TTITLE8=Ice Cold Beer
TTITLE9=Hard Livin'
TTITLE10=7 Wonders Of My World
TTITLE11=In The Shadows
EXTD=
EXTT0=Stoney Curtis Band
EXTT1=
EXTT2=
EXTT3=
EXTT4=
EXTT5=
EXTT6=
EXTT7=
EXTT8=
EXTT9=
EXTT10=
EXTT11=
PLAYORDER=
